PathFileType	4	(X/Y/Z)	c:/Users/goper/Files/vsCode/490R/osim_files/A05/A05_Static01.trc
DataRate	CameraRate	NumFrames	NumMarkers	Units                	OrigDataRate	OrigDataStartFrame	OrigNumFrames
250.00	250.00	11	36	mm	250.0	3065	3502
                Frame#	Time	LPSIS			LASIS			LTH1			LTH2			LTH3			LTH4			LLFE			LMFE			LSH1			LSH2			LSH3			LSH4			LLMAL			LMMAL			LCAL			LMTP5			LTOE			LMTP1			RPSIS			RASIS			RTH1			RTH2			RTH3			RTH4			RLFE			RMFE			RSH1			RSH2			RSH3			RSH4			RLMAL			RMMAL			RCAL			RMTP1			RTOE			RMTP5		
		X1	Y1	Z1	X2	Y2	Z2	X3	Y3	Z3	X4	Y4	Z4	X5	Y5	Z5	X6	Y6	Z6	X7	Y7	Z7	X8	Y8	Z8	X9	Y9	Z9	X10	Y10	Z10	X11	Y11	Z11	X12	Y12	Z12	X13	Y13	Z13	X14	Y14	Z14	X15	Y15	Z15	X16	Y16	Z16	X17	Y17	Z17	X18	Y18	Z18	X19	Y19	Z19	X20	Y20	Z20	X21	Y21	Z21	X22	Y22	Z22	X23	Y23	Z23	X24	Y24	Z24	X25	Y25	Z25	X26	Y26	Z26	X27	Y27	Z27	X28	Y28	Z28	X29	Y29	Z29	X30	Y30	Z30	X31	Y31	Z31	X32	Y32	Z32	X33	Y33	Z33	X34	Y34	Z34	X35	Y35	Z35	X36	Y36	Z36

3065	12.25600	0.00000	0.00000	0.00000	343.47748	966.12146	266.46613	275.25055	701.58154	218.70433	230.57364	649.19818	238.78345	280.19278	658.35291	221.32324	0.00000	0.00000	0.00000	295.63486	480.47000	242.35439	302.17224	475.51236	341.42612	256.16772	387.19794	233.68430	249.41890	340.40613	232.27510	314.56799	376.08832	242.36671	302.43878	332.44150	237.31090	255.50137	116.89369	233.12411	260.88870	119.13322	322.79507	0.00000	0.00000	0.00000	380.49969	49.63091	200.22362	434.81317	70.98247	259.11328	395.67389	63.66595	308.91803	172.85567	997.05518	482.11893	360.60898	976.14569	581.32855	322.88290	627.28308	621.06024	334.55811	587.64142	612.36145	382.27344	641.67444	604.91937	384.96429	594.84381	595.74988	309.33026	516.05585	599.71472	339.51181	501.18826	463.32599	219.71288	269.05954	579.19824	211.85196	224.92735	568.91132	279.51254	252.73482	580.39124	260.32126	207.99815	572.56586	198.79475	111.37075	544.30310	250.96216	134.73822	461.77252	152.72755	69.95116	452.62592	363.34186	58.97737	490.98959	384.12323	65.91872	550.06482	308.27982	43.00386	597.79120
3066	12.26000	0.00000	0.00000	0.00000	343.49854	966.09161	266.43881	275.24454	701.56567	218.71591	230.56963	649.19446	238.74742	280.17892	658.35126	221.32198	0.00000	0.00000	0.00000	295.67258	480.48431	242.29837	302.22308	475.51562	341.45364	256.18146	387.18930	233.66306	249.42094	340.40463	232.26501	314.57599	376.03165	242.36389	302.45020	332.43658	237.29515	255.50977	116.92250	233.09593	260.89328	119.11843	322.80063	0.00000	0.00000	0.00000	380.48892	49.61504	200.23386	434.79861	70.93977	259.09448	395.67392	63.66378	308.91867	172.84216	997.07941	482.12109	360.62729	976.15546	581.31958	322.88000	627.27106	621.06079	334.53305	587.62872	612.34241	382.24396	641.65546	604.90405	384.95114	594.85284	595.75464	309.27786	516.04913	599.71106	339.48862	501.17133	463.33109	219.70572	269.08313	579.18335	211.82401	224.95201	568.90753	279.50705	252.72635	580.38031	260.33173	208.01299	572.59155	198.79395	111.36997	544.32227	250.99600	134.72948	461.77487	152.68037	69.95082	452.66098	363.55432	59.24329	491.00510	384.11664	65.90978	550.05933	308.17291	43.03146	597.75714
3067	12.26400	0.00000	0.00000	0.00000	343.57437	966.10828	266.38626	275.26880	701.53204	218.66505	230.55867	649.17603	238.76343	280.17273	658.30786	221.31302	0.00000	0.00000	0.00000	295.68787	480.48236	242.30247	302.19360	475.50882	341.43570	256.21661	387.18961	233.66074	249.80882	340.88535	231.97771	314.57590	376.05420	242.35674	302.45773	332.42435	237.29007	255.49863	116.89412	233.10652	260.86899	119.10807	322.79803	0.00000	0.00000	0.00000	380.48462	49.62430	200.22655	434.78885	70.95820	259.10556	395.65680	63.66091	308.90564	172.85690	997.03473	482.08453	360.60577	976.11072	581.30475	322.86911	627.26489	621.05060	334.55038	587.64825	612.32404	382.26669	641.65601	604.90973	384.96234	594.85077	595.74316	309.27979	516.03870	599.69727	339.46686	501.16006	463.33981	219.70860	269.07898	579.20978	211.94908	225.03639	568.99646	279.48825	252.72826	580.40320	260.31403	207.99965	572.58362	198.75400	111.35817	544.33112	250.95695	134.72495	461.79919	152.68297	69.93578	452.67056	363.53830	59.21341	491.01407	384.11057	65.91592	550.06787	308.16144	43.06362	597.75055
3068	12.26800	0.00000	0.00000	0.00000	343.59293	966.10620	266.40240	275.25439	701.55066	218.67857	230.60367	649.19763	238.70535	280.21188	658.32800	221.28827	0.00000	0.00000	0.00000	295.67941	480.46616	242.30144	302.20844	475.53488	341.43948	256.19760	387.17014	233.63872	249.82600	340.89426	231.96082	314.56454	376.07001	242.36386	302.42896	332.43179	237.28642	255.49615	116.89551	233.11084	260.85754	119.11465	322.80264	0.00000	0.00000	0.00000	380.50571	49.63427	200.20532	434.81305	70.97096	259.10754	395.67026	63.68201	308.91931	172.84589	997.03888	482.09167	360.62854	976.12274	581.28052	322.90692	627.30792	621.06482	334.56516	587.66864	612.33350	382.28647	641.66785	604.90796	384.99219	594.87537	595.74335	309.33734	516.10260	599.74011	339.45688	501.13782	463.32755	219.66835	269.06509	579.17926	211.86897	225.00256	568.97839	279.51166	252.73700	580.39636	260.34354	208.01396	572.60651	198.81015	111.39627	544.34351	250.96715	134.74557	461.79343	152.70595	69.97337	452.63947	363.35989	59.00406	490.96066	384.12198	65.90456	550.05957	308.18365	43.07267	597.78925
3069	12.27200	0.00000	0.00000	0.00000	343.59183	966.08508	266.39270	275.26807	701.55426	218.66312	230.61150	649.19189	238.72908	280.17514	658.31372	221.30544	0.00000	0.00000	0.00000	295.66534	480.47287	242.30862	302.18420	475.54779	341.42307	256.20105	387.19238	233.63797	250.12492	341.26169	231.71344	314.58749	376.08557	242.32193	302.45099	332.44470	237.28983	255.48627	116.90374	233.12985	260.89316	119.11901	322.80096	174.27400	66.24610	290.01321	380.46320	49.63369	200.21730	434.81747	70.96889	259.09811	395.66327	63.67418	308.91846	172.85532	997.04639	482.07739	360.68726	976.14893	581.27411	322.95566	627.35858	621.05652	334.61249	587.71924	612.34094	382.31421	641.68713	604.88452	385.01486	594.88666	595.73682	309.40671	516.15173	599.73657	339.50351	501.17764	463.32196	219.74269	269.12781	579.21857	212.03081	225.13469	569.06915	279.54535	252.75688	580.39624	260.35422	208.05164	572.59393	198.80891	111.41763	544.32825	250.95869	134.73225	461.82422	152.70599	69.99031	452.63498	363.36844	59.01232	490.98120	384.13614	65.89255	550.07758	308.33395	43.08615	597.78607
3070	12.27600	0.00000	0.00000	0.00000	343.59293	966.06866	266.38687	275.61166	701.91351	218.39522	230.61449	649.19684	238.69826	280.19711	658.31799	221.29453	0.00000	0.00000	0.00000	295.69107	480.47855	242.29991	302.21011	475.57169	341.42938	256.21902	387.18298	233.62387	250.13208	341.26779	231.69235	314.57834	376.08289	242.32083	302.41867	332.42914	237.28073	255.51028	116.90897	233.10066	260.93103	119.16135	322.77554	0.00000	0.00000	0.00000	380.48199	49.64604	200.20735	434.83792	71.01620	259.07990	395.69907	63.70177	308.89633	172.82886	997.04742	482.07758	360.70441	976.15448	581.24878	323.00415	627.39227	621.05035	334.64886	587.73657	612.33569	382.35843	641.72809	604.85724	385.03769	594.90833	595.72205	309.42599	516.16827	599.72119	339.52557	501.20367	463.33389	219.80225	269.17810	579.22485	212.11717	225.20876	569.06604	279.59338	252.79437	580.39227	260.39981	208.07414	572.58582	198.84941	111.48761	544.30963	251.01598	134.77867	461.79800	152.74748	70.01316	452.60526	363.38254	59.00821	490.96579	384.16556	65.92449	550.05017	308.37906	43.10952	597.79395
3071	12.28000	0.00000	0.00000	0.00000	343.64670	966.10010	266.35123	275.70044	701.98291	218.29756	230.61053	649.19470	238.72858	280.19009	658.30939	221.30318	0.00000	0.00000	0.00000	295.71982	480.50867	242.28299	302.23804	475.56699	341.41647	256.23254	387.19888	233.61969	250.15953	341.29041	231.67892	314.58334	376.07455	242.33047	302.46231	332.44351	237.27364	255.49586	116.91889	233.10110	260.98309	119.21181	322.77475	174.26715	66.29265	290.01514	380.48233	49.65641	200.21089	434.86273	71.03582	259.07925	395.69388	63.72502	308.89862	172.90636	997.04626	482.04321	360.79208	976.21405	581.21393	323.06171	627.43488	621.04144	334.70547	587.76569	612.32355	382.41431	641.76300	604.83936	385.11328	594.94690	595.70471	309.45648	516.22070	599.70850	339.53888	501.18509	463.33078	219.85660	269.24097	579.18970	212.18504	225.28401	569.05048	279.64301	252.81734	580.37970	260.43085	208.12657	572.58099	198.89731	111.54285	544.32446	251.01480	134.80098	461.79712	152.71834	70.07484	452.61862	363.41412	59.03110	490.95670	384.20535	65.94446	550.02075	307.87936	42.84447	597.81396
3072	12.28400	0.00000	0.00000	0.00000	343.63245	966.08319	266.34473	275.68350	701.94110	218.35815	230.61546	649.21716	238.70535	280.21213	658.33441	221.30133	0.00000	0.00000	0.00000	295.70618	480.50815	242.29277	302.21841	475.56177	341.42218	256.20618	387.19318	233.64009	250.13530	341.28125	231.70654	314.58450	376.07379	242.33228	302.44446	332.43936	237.28209	255.50513	116.92751	233.10924	260.98746	119.22340	322.75464	174.31197	66.40660	289.89069	380.46463	49.64894	200.23331	434.88071	71.03461	259.07297	395.72769	63.74189	308.87811	172.94969	997.02911	481.99265	360.81616	976.25787	581.21680	323.07358	627.43347	621.01611	334.71390	587.77209	612.30902	382.45367	641.78186	604.83905	385.13077	594.94891	595.69568	309.52902	516.24841	599.72174	339.56537	501.20004	463.36014	220.22047	269.02203	579.71466	212.24025	225.30693	569.01105	279.67142	252.81569	580.35614	260.47305	208.13882	572.55664	198.92551	111.53928	544.33942	251.04567	134.80544	461.80869	152.74292	70.08499	452.61108	363.64935	59.28513	490.98630	384.20743	65.93168	550.03558	308.41415	43.13831	597.78357
3073	12.28800	0.00000	0.00000	0.00000	343.66870	966.09888	266.34717	275.26205	701.54504	218.67273	230.62212	649.21991	238.71640	280.18164	658.32123	221.28484	0.00000	0.00000	0.00000	295.69824	480.50851	242.28680	302.22849	475.55176	341.39221	256.22421	387.20682	233.62799	250.12733	341.27057	231.72081	314.81592	376.37045	242.45433	302.45953	332.44943	237.28290	255.45840	116.91754	233.12862	260.98230	119.20464	322.75424	174.26147	66.34930	290.01401	380.46869	49.64068	200.22847	434.86157	71.02975	259.08572	395.73199	63.74292	308.90140	172.93042	997.03729	481.96884	360.84244	976.24329	581.18195	323.11008	627.44952	621.03308	334.76935	587.77960	612.32111	382.48242	641.77667	604.82867	385.19202	594.97955	595.71027	309.51166	516.22321	599.72528	339.58618	501.21222	463.36520	220.23434	268.96558	579.65686	212.22874	225.26219	568.98975	279.71616	252.83432	580.34772	260.50613	208.15080	572.57019	198.89693	111.53778	544.31372	251.03435	134.80208	461.83194	152.72888	70.09962	452.62976	363.62567	59.25724	490.99854	384.21545	65.92389	550.04285	308.30539	43.12705	597.74695
3074	12.29200	0.00000	0.00000	0.00000	343.69141	966.11420	266.32623	275.29929	701.57062	218.66119	231.15723	649.84351	238.35745	280.23795	658.34625	221.26648	0.00000	0.00000	0.00000	295.69928	480.50513	242.31201	302.20108	475.50211	341.39172	256.23239	387.22430	233.60948	250.11426	341.28357	231.73499	314.58963	376.04410	242.34326	302.46588	332.42252	237.29146	255.51863	116.94675	233.12289	260.95721	119.17411	322.77478	174.24129	66.29285	290.06458	380.49878	49.64731	200.23407	434.85440	71.00376	259.09210	395.72583	63.71740	308.90067	173.02324	997.03308	481.96518	360.84772	976.25171	581.16040	323.12256	627.41882	620.99805	334.82333	587.77460	612.32965	382.49615	641.78687	604.83380	385.22192	594.95746	595.70081	309.55212	516.19733	599.73651	339.62378	501.23157	463.35831	220.28548	268.96375	579.68671	212.25227	225.24011	568.97144	279.73639	252.83037	580.34595	260.55014	208.14250	572.58191	198.97557	111.50146	544.32513	251.07553	134.80525	461.82422	152.76884	70.13573	452.62292	363.62088	59.22915	491.03705	384.22113	65.90540	550.07825	308.32538	43.10588	597.75018
3075	12.29600	0.00000	0.00000	0.00000	343.68652	966.11346	266.32425	275.29059	701.58899	218.67520	230.65694	649.24615	238.71785	280.22495	658.34528	221.28046	0.00000	0.00000	0.00000	295.70456	480.52386	242.27582	302.24277	475.52328	341.42224	256.23148	387.23627	233.63303	250.14606	341.30548	231.69102	314.56332	376.04813	242.37801	302.47049	332.43576	237.29285	255.48364	116.93605	233.11722	260.95218	119.15481	322.79922	174.24951	66.31536	290.08878	380.47559	49.62664	200.24516	434.85388	71.00796	259.11667	395.70193	63.69057	308.91745	173.01128	997.02399	481.93808	360.84650	976.23749	581.17444	323.17548	627.41779	621.02118	334.86276	587.77368	612.34729	382.52875	641.78705	604.82910	385.22433	594.96332	595.70905	309.60425	516.20239	599.74054	339.64786	501.21088	463.37277	220.03151	269.19510	579.17493	212.34114	225.23575	569.01196	279.78503	252.83592	580.36249	260.57626	208.14198	572.59833	198.97139	111.46563	544.35236	251.04736	134.78743	461.84854	152.73006	70.13990	452.63251	363.42551	58.95250	491.00577	384.22977	65.86433	550.07983	307.03143	41.99489	598.12714
